<svg width="53" height="51" viewBox="0 0 53 51" fill="none" xmlns="http://www.w3.org/2000/svg">
<path d="M39.8847 0.947754H13.7993C6.59482 0.947754 0.731201 6.81135 0.731201 14.0158V37.8797C0.731201 45.0842 6.59482 50.9478 13.7993 50.9478H39.8847C47.0891 50.9478 52.9527 45.0842 52.9527 37.8797V14.0158C52.9527 6.81135 47.0891 0.947754 39.8847 0.947754ZM5.34089 14.0158C5.34089 9.35176 9.13522 5.55745 13.7993 5.55745H39.8847C44.5487 5.55745 48.343 9.35176 48.343 14.0158V37.8797C48.343 42.5438 44.5487 46.3381 39.8847 46.3381H13.7993C9.13522 46.3381 5.34089 42.5438 5.34089 37.8797V14.0158Z" fill="url(#paint0_linear_93_3730)"/>
<path d="M26.8456 38.1046C33.5463 38.1046 39.0004 32.6505 39.0004 25.9497C39.0004 19.249 33.5463 13.7949 26.8456 13.7949C20.1449 13.7949 14.6908 19.249 14.6908 25.9497C14.6908 32.6505 20.1449 38.1046 26.8456 38.1046ZM26.8456 18.4046C31.0059 18.4046 34.3907 21.7894 34.3907 25.9497C34.3907 30.1101 31.0059 33.4949 26.8456 33.4949C22.6853 33.4949 19.3005 30.1101 19.3005 25.9497C19.3005 21.7894 22.6853 18.4046 26.8456 18.4046Z" fill="url(#paint1_linear_93_3730)"/>
<path d="M40.1274 15.7553C41.9322 15.7553 43.4035 14.2876 43.4035 12.4792C43.4035 10.6708 41.9358 9.20312 40.1274 9.20312C38.3191 9.20312 36.8513 10.6708 36.8513 12.4792C36.8513 14.2876 38.3191 15.7553 40.1274 15.7553Z" fill="url(#paint2_linear_93_3730)"/>
<defs>
<linearGradient id="paint0_linear_93_3730" x1="4.80455" y1="47.1607" x2="49.818" y2="3.83603" gradientUnits="userSpaceOnUse">
<stop stop-color="#FAAD4F"/>
<stop offset="0.35" stop-color="#DD2A7B"/>
<stop offset="0.62" stop-color="#9537B0"/>
<stop offset="1" stop-color="#515BD4"/>
</linearGradient>
<linearGradient id="paint1_linear_93_3730" x1="4.80455" y1="47.1609" x2="49.818" y2="3.83618" gradientUnits="userSpaceOnUse">
<stop stop-color="#FAAD4F"/>
<stop offset="0.35" stop-color="#DD2A7B"/>
<stop offset="0.62" stop-color="#9537B0"/>
<stop offset="1" stop-color="#515BD4"/>
</linearGradient>
<linearGradient id="paint2_linear_93_3730" x1="4.46373" y1="46.8055" x2="49.4772" y2="3.48068" gradientUnits="userSpaceOnUse">
<stop stop-color="#FAAD4F"/>
<stop offset="0.35" stop-color="#DD2A7B"/>
<stop offset="0.62" stop-color="#9537B0"/>
<stop offset="1" stop-color="#515BD4"/>
</linearGradient>
</defs>
</svg>
