<svg width="72" height="310" viewBox="0 0 72 310" fill="none" xmlns="http://www.w3.org/2000/svg">
<g filter="url(#filter0_d_122_1448)">
<path d="M37.5549 1.11342L37.4801 7.79772L31.363 16.0858L37.3244 21.7233L23.929 34.3868L37.0629 45.1184L36.8947 60.1581L50.7182 63.0981L2.4848 66.4585L44.0173 69.7083L36.7391 74.0837L36.6768 79.654L29.9822 85.7072L36.5647 89.6804L36.3965 104.72L30.3105 110.223L36.2533 117.532L22.8703 129.081L35.9917 140.927L35.8361 154.852L51.4604 158.37L1.41989 161.71L42.35 164.953L35.6866 168.221L35.6181 174.348L28.3211 180.395L35.4749 187.16L35.3378 199.414L34.3352 289.095" stroke="#F23030" stroke-width="2"/>
</g>
<defs>
<filter id="filter0_d_122_1448" x="0" y="0.729553" width="73.2165" height="308.541" filterUnits="userSpaceOnUse" color-interpolation-filters="sRGB">
<feFlood flood-opacity="0" result="BackgroundImageFix"/>
<feColorMatrix in="SourceAlpha" type="matrix" values="0 0 0 0 0 0 0 0 0 0 0 0 0 0 0 0 0 0 127 0" result="hardAlpha"/>
<feOffset dx="10" dy="10"/>
<feGaussianBlur stdDeviation="5"/>
<feComposite in2="hardAlpha" operator="out"/>
<feColorMatrix type="matrix" values="0 0 0 0 1 0 0 0 0 0.00784314 0 0 0 0 0.0352941 0 0 0 1 0"/>
<feBlend mode="normal" in2="BackgroundImageFix" result="effect1_dropShadow_122_1448"/>
<feBlend mode="normal" in="SourceGraphic" in2="effect1_dropShadow_122_1448" result="shape"/>
</filter>
</defs>
</svg>
