<svg width="308" height="72" viewBox="0 0 308 72" fill="none" xmlns="http://www.w3.org/2000/svg">
<g filter="url(#filter0_d_238_1348)">
<path d="M288 35.3374H281.315L272.959 29.3133L267.389 35.3374L254.576 22.0843L243.992 35.3374H228.952L226.166 49.1928L222.267 1L219.482 42.5663L215.025 35.3374H209.455L203.327 28.7108L199.427 35.3374H184.387L178.816 29.3133L171.574 35.3374L159.876 22.0843L148.178 35.3374H134.251L130.909 51L127.01 1L124.224 41.9639L120.882 35.3374H114.754L108.627 28.1084L101.942 35.3374H89.6867H0" stroke="url(#paint0_linear_238_1348)" stroke-width="2"/>
</g>
<defs>
<filter id="filter0_d_238_1348" x="0" y="0.919312" width="308" height="70.2894" filterUnits="userSpaceOnUse" color-interpolation-filters="sRGB">
<feFlood flood-opacity="0" result="BackgroundImageFix"/>
<feColorMatrix in="SourceAlpha" type="matrix" values="0 0 0 0 0 0 0 0 0 0 0 0 0 0 0 0 0 0 127 0" result="hardAlpha"/>
<feOffset dx="10" dy="10"/>
<feGaussianBlur stdDeviation="5"/>
<feComposite in2="hardAlpha" operator="out"/>
<feColorMatrix type="matrix" values="0 0 0 0 0.85098 0 0 0 0 0.85098 0 0 0 0 0.85098 0 0 0 0.36 0"/>
<feBlend mode="normal" in2="BackgroundImageFix" result="effect1_dropShadow_238_1348"/>
<feBlend mode="normal" in="SourceGraphic" in2="effect1_dropShadow_238_1348" result="shape"/>
</filter>
<linearGradient id="paint0_linear_238_1348" x1="144" y1="1" x2="144" y2="51" gradientUnits="userSpaceOnUse">
<stop stop-color="#59595B"/>
<stop offset="0.25" stop-color="#72716D"/>
<stop offset="0.5" stop-color="#EEECEF"/>
<stop offset="0.75" stop-color="#C5C1BE"/>
<stop offset="1" stop-color="#716F72"/>
</linearGradient>
</defs>
</svg>
