<svg width="64" height="279" viewBox="0 0 64 279" fill="none" xmlns="http://www.w3.org/2000/svg">
<g filter="url(#filter0_d_122_1472)">
<path d="M32.0009 0.318646L31.9338 6.31827L26.8503 13.7619L31.7941 18.8175L20.6662 30.1938L31.5593 39.8162L31.4084 53.3153L42.8797 55.9437L2.84308 58.9963L37.313 61.8819L31.2686 65.8146L31.2127 70.8142L25.6516 76.2524L31.1121 79.8137L30.9612 93.3128L25.9056 98.2566L30.8326 104.812L19.7159 115.188L30.5979 125.811L30.4581 138.31L43.4238 141.455L1.88724 144.491L35.8572 147.371L30.324 150.309L30.2625 155.809L24.2014 161.242L30.1339 167.308L30.011 178.308L29.111 258.802" stroke="url(#paint0_linear_122_1472)" stroke-width="2"/>
</g>
<defs>
<filter id="filter0_d_122_1472" x="0.612793" y="0" width="64.3873" height="278.948" filterUnits="userSpaceOnUse" color-interpolation-filters="sRGB">
<feFlood flood-opacity="0" result="BackgroundImageFix"/>
<feColorMatrix in="SourceAlpha" type="matrix" values="0 0 0 0 0 0 0 0 0 0 0 0 0 0 0 0 0 0 127 0" result="hardAlpha"/>
<feOffset dx="10" dy="10"/>
<feGaussianBlur stdDeviation="5"/>
<feComposite in2="hardAlpha" operator="out"/>
<feColorMatrix type="matrix" values="0 0 0 0 0.619608 0 0 0 0 0.619608 0 0 0 0 0.619608 0 0 0 0.85 0"/>
<feBlend mode="normal" in2="BackgroundImageFix" result="effect1_dropShadow_122_1472"/>
<feBlend mode="normal" in="SourceGraphic" in2="effect1_dropShadow_122_1472" result="shape"/>
</filter>
<linearGradient id="paint0_linear_122_1472" x1="2.05773" y1="129.242" x2="43.5551" y2="129.706" gradientUnits="userSpaceOnUse">
<stop stop-color="#59595B"/>
<stop offset="0.25" stop-color="#72716D"/>
<stop offset="0.5" stop-color="#EEECEF"/>
<stop offset="0.75" stop-color="#C5C1BE"/>
<stop offset="1" stop-color="#716F72"/>
</linearGradient>
</defs>
</svg>
