<svg width="42" height="51" viewBox="0 0 42 51" fill="none" xmlns="http://www.w3.org/2000/svg">
<path d="M41.5546 17.7109V25.27C40.232 25.1416 38.5184 24.8431 36.6167 24.1445C34.1358 23.234 32.2908 21.992 31.0817 21.0277V36.3072L31.0518 36.2594C31.0727 36.5609 31.0817 36.8684 31.0817 37.1819C31.0817 44.7709 24.9078 50.9477 17.3158 50.9477C9.72387 50.9477 3.55003 44.7709 3.55003 37.1819C3.55003 29.5929 9.72387 23.4131 17.3158 23.4131C18.0592 23.4131 18.7877 23.4728 19.5012 23.5862V31.0379C18.8145 30.7931 18.0831 30.6617 17.3158 30.6617C13.7214 30.6617 10.7957 33.5844 10.7957 37.1819C10.7957 40.7793 13.7214 43.7021 17.3158 43.7021C20.9103 43.7021 23.836 40.7763 23.836 37.1819C23.836 37.0475 23.833 36.9132 23.8241 36.7789V7.08276H31.3802C31.4071 7.72463 31.434 8.3665 31.4608 9.00837C31.5116 10.2682 31.9594 11.4773 32.7416 12.4685C33.6611 13.6328 35.0135 14.9852 36.9152 16.0659C38.6945 17.075 40.3694 17.5079 41.5546 17.7109Z" fill="#FF004F"/>
<path d="M38.9572 11.5729V19.132C37.6347 19.0036 35.9211 18.7051 34.0194 18.0065C31.5385 17.096 29.6935 15.854 28.4844 14.8927V30.1721L28.4545 30.1244C28.4754 30.4259 28.4844 30.7334 28.4844 31.0469C28.4844 38.6358 22.3105 44.8127 14.7185 44.8127C7.12656 44.8127 0.952728 38.6358 0.952728 31.0469C0.952728 23.4579 7.12656 17.2781 14.7185 17.2781C15.4619 17.2781 16.1904 17.3378 16.9039 17.4512V24.9029C16.2172 24.658 15.4858 24.5267 14.7185 24.5267C11.1241 24.5267 8.19838 27.4494 8.19838 31.0469C8.19838 34.6443 11.1241 37.567 14.7185 37.567C18.313 37.567 21.2387 34.6413 21.2387 31.0469C21.2387 30.9125 21.2387 30.7782 21.2268 30.6438V0.947754H28.7829C28.8098 1.58664 28.8367 2.23149 28.8635 2.87336C28.9143 4.13321 29.3621 5.3423 30.1443 6.33347C31.0638 7.49778 32.4162 8.8502 34.3179 9.93092C36.0972 10.94 37.772 11.3729 38.9572 11.5759V11.5729Z" fill="#00F7EF"/>
<path d="M40.6112 14.8776V22.4368C39.2886 22.3084 37.575 22.0098 35.6732 21.3113C33.1923 20.4007 31.3474 19.1588 30.1383 18.1945V33.4739L30.1084 33.4261C30.1293 33.7277 30.1383 34.0381 30.1383 34.3486C30.1383 41.9376 23.9644 48.1145 16.3725 48.1145C8.7805 48.1145 2.60667 41.9376 2.60667 34.3486C2.60667 26.7597 8.7805 20.5798 16.3725 20.5798C17.1158 20.5798 17.8443 20.6395 18.5578 20.753V28.2046C17.8712 27.9598 17.1397 27.8284 16.3725 27.8284C12.778 27.8284 9.85224 30.7512 9.85224 34.3486C9.85224 37.9461 12.778 40.8688 16.3725 40.8688C19.9669 40.8688 22.8927 37.9431 22.8927 34.3486C22.8927 34.2143 22.8897 34.0799 22.8807 33.9456V4.24951H30.4369C30.4637 4.89138 30.4906 5.53325 30.5175 6.17512C30.5682 7.43497 31.016 8.64406 31.7982 9.63522C32.7177 10.7995 34.0701 12.152 35.9718 13.2327C37.7511 14.2418 39.4259 14.6746 40.6112 14.8776Z" fill="black"/>
</svg>
