<svg width="73" height="51" viewBox="0 0 73 51" fill="none" xmlns="http://www.w3.org/2000/svg">
<path d="M71.6559 14.3537C71.2194 10.1019 70.2678 5.40046 66.7843 2.92971C64.0778 1.01336 60.5288 0.943551 57.2112 0.947916C50.2006 0.952281 43.19 0.960975 36.1837 0.965341C29.4437 0.969706 22.6993 0.978454 15.9593 0.982819C13.1437 0.982819 10.4067 0.764572 7.79191 1.98248C5.5438 3.03015 3.78892 5.02068 2.73252 7.23387C1.26142 10.3158 0.95586 13.8037 0.776883 17.2086C0.449488 23.4116 0.484401 29.6321 0.877276 35.8264C1.16102 40.3532 1.88568 45.3515 5.38227 48.2326C8.48162 50.7863 12.86 50.9129 16.8761 50.9172C29.6358 50.9259 42.3998 50.9347 55.1595 50.9478C56.7965 50.9478 58.5033 50.9172 60.1709 50.7382C63.4535 50.3846 66.5791 49.4461 68.6875 47.0146C70.8134 44.5657 71.3591 41.1521 71.6865 37.9218C72.4723 30.0905 72.4635 22.1762 71.6559 14.3493V14.3537ZM28.802 36.9309V14.9648L47.8258 25.9478L28.802 36.9309Z" fill="#FF0209"/>
</svg>
